<svg width="500" height="500" viewBox="0 0 500 500" fill="white" xmlns="http://www.w3.org/2000/svg">
<path d="M54.0734 21.127L190.09 89.2806H309.998L446.015 21.127L463.056 83.312L424.713 209.825L473.706 312.27L430.039 392.457L340.041 381.436L281.41 410.002H218.678L160.047 381.436L70.0492 392.457L26.3818 312.27L75.3745 209.825L37.0324 83.312L54.0734 21.127Z" fill="#FF8F25"/>
<path d="M54.0712 21.127L190.088 89.2806L172.08 140.389H328.856L309.996 89.2806L446.013 21.127L463.053 83.312L424.711 209.825L250.042 158.71L75.3723 209.825L37.0303 83.312L54.0712 21.127Z" fill="#763D16"/>
<path d="M190.091 89.2806L54.0744 21.127L211.703 209.825L250.045 158.71L288.387 209.825L446.016 21.127L309.999 89.2806L328.859 140.389H172.083L190.091 89.2806Z" fill="#D06207"/>
<path d="M430.039 392.456L473.706 312.269H26.3818L70.0492 392.456L160.047 381.435L218.678 410.001H281.41L340.041 381.435L430.039 392.456Z" fill="#D06207"/>
<path d="M482.716 68.7125L477.642 50.1962C475.629 42.8372 473.525 35.1522 470.88 29.0596C467.846 22.0714 462.48 13.2255 451.681 8.41159C440.883 3.59764 430.715 5.51901 423.489 7.93299C417.188 10.0376 410.065 13.6098 403.244 17.0305L306.283 65.6151C305.589 65.963 305.051 66.2321 304.59 66.4599C304.075 66.4629 303.474 66.4631 302.698 66.4631H197.376C196.599 66.4631 195.998 66.4629 195.484 66.4599C195.022 66.2321 194.485 65.963 193.791 65.6151L96.8294 17.0305C90.0086 13.6098 82.8856 10.0376 76.5849 7.93299C69.3581 5.51901 59.1909 3.59764 48.3922 8.41159C37.5935 13.2255 32.2276 22.0714 29.1934 29.0596C26.5481 35.1523 24.4449 42.8375 22.431 50.1965L17.3573 68.7125C17.2819 68.9876 17.1988 69.2847 17.1099 69.602C16.2172 72.7913 14.7512 78.0289 14.8261 83.6182C14.901 89.2075 16.5069 94.404 17.4847 97.5682C17.582 97.883 17.6731 98.1778 17.7558 98.4508L50.0493 205.006C50.4172 206.22 50.7031 207.164 50.941 207.976C50.583 208.743 50.1575 209.634 49.6103 210.778L12.3139 288.765C10.878 291.765 9.22592 295.217 8.03726 298.41C6.61766 302.224 5.29567 307.056 5.44747 312.829C5.59927 318.601 7.17335 323.357 8.79144 327.091C10.1463 330.218 11.9773 333.577 13.5689 336.497L40.3395 385.657C42.4346 389.508 44.7947 393.846 47.2713 397.402C50.2184 401.634 54.4612 406.495 61.0731 409.897C67.685 413.298 74.1079 413.923 79.2647 413.86C83.5973 413.807 88.498 413.205 92.8488 412.67L92.8513 412.67L153.761 405.211C154.723 405.093 155.47 405.001 156.11 404.928C156.691 405.206 157.367 405.535 158.239 405.96L202.277 427.415C202.481 427.515 202.701 427.624 202.936 427.739L202.942 427.742C205.331 428.919 209.244 430.847 213.63 431.859C218.017 432.87 222.379 432.851 225.042 432.839L225.388 432.838C225.525 432.837 225.657 432.837 225.783 432.837H274.29C274.52 432.837 274.767 432.838 275.031 432.839C277.695 432.851 282.057 432.87 286.443 431.859C290.83 430.847 294.743 428.919 297.132 427.742C297.307 427.656 297.474 427.574 297.632 427.496L297.797 427.415L341.834 405.96C342.706 405.535 343.382 405.206 343.964 404.928C344.604 405.001 345.35 405.093 346.313 405.211L407.222 412.67C411.573 413.204 416.475 413.807 420.809 413.86C425.966 413.923 432.388 413.298 439 409.897C445.612 406.495 449.855 401.634 452.802 397.402C455.279 393.846 457.639 389.508 459.734 385.657L486.505 336.497C488.096 333.577 489.927 330.217 491.282 327.091C492.9 323.357 494.474 318.601 494.626 312.829C494.778 307.056 493.456 302.224 492.036 298.41C490.848 295.216 489.196 291.765 487.76 288.765L450.463 210.778C449.916 209.634 449.49 208.743 449.133 207.976C449.37 207.164 449.656 206.22 450.024 205.006L482.318 98.4508C482.4 98.1778 482.491 97.8831 482.589 97.5683C483.567 94.4041 485.173 89.2075 485.247 83.6182C485.322 78.0289 483.856 72.7913 482.964 69.602L482.963 69.6C482.874 69.2834 482.791 68.987 482.716 68.7125ZM79.2092 33.785C81.7562 35.0104 84.5621 36.4163 87.6806 37.9789L177.909 83.1895L163.923 125.287L79.2092 33.785ZM199.939 89.2894H300.481L320.128 142.667L293.87 159.989L261.826 151.759C261.583 151.697 261.339 151.633 261.093 151.57L261.086 151.568C258.025 150.776 254.758 149.93 251.315 149.93C247.873 149.93 244.605 150.776 241.544 151.568L241.526 151.572C241.376 151.611 241.225 151.65 241.076 151.689C240.985 151.712 240.894 151.736 240.804 151.759L208.761 159.989L182.259 142.505L199.939 89.2894ZM322.5 83.0214L412.393 37.9789C417.459 35.4405 421.7 33.3154 425.346 31.7065L338.242 125.79L322.5 83.0214ZM450.113 38.5572C452.023 43.0869 453.712 49.2524 455.943 57.3932L460.698 74.7445C461.865 79.0041 462.449 81.1339 462.42 83.3124C462.391 85.4909 461.75 87.6043 460.469 91.8311L429.273 194.766L323.707 167.653L341.403 155.979L450.113 38.5572ZM268.156 176.952L256.146 173.867C254.135 173.351 253.019 173.068 252.162 172.892C251.781 172.814 251.563 172.782 251.444 172.768C251.388 172.761 251.354 172.758 251.339 172.757C251.324 172.756 251.317 172.756 251.315 172.756C251.313 172.756 251.306 172.756 251.291 172.757C251.276 172.758 251.242 172.761 251.186 172.768C251.067 172.782 250.849 172.814 250.468 172.892C249.611 173.068 248.495 173.351 246.484 173.867L234.475 176.952L240.622 181.007C244.945 183.859 247.442 185.488 249.405 186.499C250.29 186.955 250.799 187.139 251.061 187.216C251.184 187.252 251.25 187.263 251.272 187.266C251.276 187.267 251.279 187.267 251.283 187.267C251.296 187.269 251.305 187.269 251.315 187.269C251.329 187.269 251.339 187.269 251.359 187.266C251.371 187.264 251.398 187.26 251.44 187.25C251.473 187.242 251.516 187.231 251.569 187.216C251.832 187.139 252.341 186.955 253.226 186.499C255.189 185.488 257.686 183.859 262.009 181.007L268.156 176.952ZM204.637 184.615L228.468 200.337C232.224 202.815 235.759 205.148 238.951 206.792C242.509 208.624 246.535 210.096 251.315 210.096C256.096 210.096 260.122 208.624 263.68 206.792C266.872 205.148 270.407 202.815 274.162 200.337L297.993 184.616L428.707 218.188C429.059 218.936 429.445 219.742 429.865 220.621L429.867 220.625L466.904 298.07C467.753 299.845 468.494 301.395 469.125 302.779H30.9485C31.5791 301.396 32.3193 299.848 33.1675 298.074L70.2065 220.625C70.491 220.03 70.7596 219.468 71.0126 218.936L204.637 184.615ZM178.924 167.652L70.9855 195.376L39.6044 91.8311C38.3234 87.6043 37.6829 85.4909 37.6537 83.3124C37.6245 81.1339 38.2081 79.0041 39.3754 74.7445L44.1303 57.3932C46.6822 48.081 48.5258 41.3534 50.8008 36.7024L161.228 155.979L178.924 167.652ZM33.632 325.605H466.441L440.054 374.061C435.201 382.973 432.774 387.429 428.556 389.599C424.338 391.769 419.301 391.152 409.227 389.918L349.088 382.553C344.593 382.003 342.345 381.728 340.143 382.096C337.941 382.464 335.905 383.456 331.834 385.44L287.796 406.896C284.613 408.447 283.022 409.222 281.312 409.616C279.602 410.011 277.831 410.011 274.29 410.011H225.783C222.242 410.011 220.472 410.011 218.762 409.616C217.052 409.222 215.461 408.447 212.279 406.897L212.277 406.896L168.24 385.44C164.168 383.456 162.132 382.464 159.93 382.096C157.728 381.728 155.481 382.003 150.985 382.553L90.8463 389.918C80.7724 391.152 75.7355 391.769 71.5173 389.599C67.299 387.429 64.8724 382.973 60.0191 374.061L33.632 325.605Z" fill="#2B2C30"/>
<path d="M146.741 343.692L144.081 337.537C141.58 331.749 144.245 325.03 150.033 322.529C155.822 320.029 162.542 322.694 165.043 328.481L167.703 334.637C170.634 341.419 177.16 345.95 184.54 346.325L223.127 348.286C230.163 348.643 236.842 345.161 240.576 339.187L241.194 338.198C234.797 336.171 228.914 332.631 224.081 327.799L219.924 323.643C215.465 319.185 215.465 311.957 219.924 307.499C224.382 303.04 231.612 303.04 236.071 307.498L240.227 311.654C243.868 315.294 248.806 317.339 253.955 317.339H259.443C264.591 317.339 269.528 315.295 273.169 311.655L277.327 307.499C281.786 303.042 289.016 303.043 293.474 307.502C297.932 311.961 297.931 319.189 293.471 323.646L289.313 327.803C284.479 332.634 278.595 336.174 272.197 338.2L272.813 339.185C276.547 345.16 283.226 348.643 290.263 348.286L328.85 346.325C336.229 345.95 342.755 341.42 345.686 334.639L348.347 328.484C350.849 322.697 357.569 320.033 363.357 322.534C369.146 325.036 371.81 331.755 369.308 337.543L366.647 343.698C360.269 358.454 346.066 368.311 330.009 369.127L291.423 371.088C277.975 371.772 265.129 366.011 256.695 355.793C248.261 366.011 235.415 371.772 221.968 371.088L183.381 369.127C167.322 368.311 153.118 358.451 146.741 343.692Z" fill="#2B2C30"/>
<path d="M169.238 243.14C169.954 236.482 175.972 231.67 182.677 232.392L200.265 234.285C206.97 235.007 211.825 240.99 211.108 247.647C210.391 254.305 204.374 259.117 197.668 258.396L180.081 256.502C173.375 255.781 168.521 249.798 169.238 243.14Z" fill="#2B2C30"/>
<path d="M183.477 214.978C172.448 211.595 160.733 211.83 150.029 215.648C144.17 217.738 137.622 214.576 135.405 208.585C133.188 202.594 136.141 196.042 142 193.952C157.21 188.527 173.858 188.193 189.531 193L220.873 202.612C226.911 204.464 230.451 210.885 228.779 216.954C227.107 223.023 220.857 226.442 214.819 224.59L183.477 214.978Z" fill="#2B2C30"/>
<path d="M344.161 243.14C343.444 236.482 337.427 231.67 330.722 232.392L313.134 234.285C306.429 235.007 301.574 240.99 302.291 247.647C303.008 254.305 309.025 259.117 315.73 258.396L333.318 256.502C340.023 255.781 344.878 249.798 344.161 243.14Z" fill="#2B2C30"/>
<path d="M105.866 198.846L94.0541 286.4C94.0308 286.573 94.0111 286.721 93.9915 286.87C91.9274 302.583 92.244 318.518 94.9308 334.137C94.9779 334.411 95.0255 334.682 95.1015 335.115L95.1211 335.227C95.2966 336.226 95.4068 336.853 95.5203 337.471C102.089 373.212 120.801 405.588 148.493 429.123C148.972 429.53 149.461 429.939 150.239 430.59L190.206 464.018C194.7 467.778 198.189 470.698 201.958 473.23C213.573 481.033 226.919 485.884 240.835 487.358C245.351 487.837 249.899 487.839 255.76 487.841L257.73 487.842C263.572 487.848 268.106 487.852 272.609 487.382C286.485 485.934 299.801 481.13 311.405 473.385C315.17 470.872 318.657 467.974 323.15 464.24L363.129 431.031C363.705 430.553 364.065 430.254 364.419 429.957C392.986 405.946 412.113 372.585 418.399 335.804C418.476 335.353 418.552 334.895 418.672 334.167L418.688 334.068C418.736 333.774 418.767 333.589 418.797 333.401C421.269 318.187 421.497 302.692 419.473 287.411C419.448 287.221 419.423 287.033 419.382 286.734L407.526 198.846C407.404 197.947 407.285 197.059 407.168 196.184C405.185 181.42 403.649 169.978 399.584 159.988C390.409 137.44 371.951 119.945 348.942 111.986C338.748 108.46 327.24 107.536 312.389 106.344L312.369 106.343C311.495 106.273 310.608 106.201 309.71 106.129L309.284 106.094C295.816 105.005 288.565 104.418 281.283 104.049C264.902 103.218 248.489 103.218 232.109 104.049C224.826 104.418 217.575 105.005 204.108 106.094L203.681 106.129C202.776 106.202 201.883 106.274 201.002 106.344C186.152 107.536 174.643 108.46 164.449 111.986C141.44 119.945 122.983 137.44 113.807 159.988C109.742 169.979 108.206 181.42 106.224 196.184C106.106 197.06 105.987 197.947 105.866 198.846ZM378.437 168.591C381.385 175.834 382.557 184.522 384.901 201.898L396.754 289.761C396.798 290.084 396.82 290.246 396.841 290.407C398.572 303.477 398.377 316.729 396.263 329.741C396.237 329.902 396.211 330.063 396.157 330.386C396.095 330.764 396.047 331.055 396.007 331.295C395.964 331.556 395.93 331.759 395.895 331.959C390.519 363.417 374.161 391.949 349.729 412.484C349.43 412.735 349.121 412.991 348.503 413.505L309.318 446.054C304.093 450.394 301.48 452.565 298.73 454.4C290.208 460.087 280.43 463.615 270.239 464.679C269.546 464.751 268.848 464.808 268.114 464.853L268.114 412.915H272.21C278.516 412.915 283.627 407.804 283.627 401.499C283.627 395.195 278.516 390.083 272.21 390.083H241.183C234.877 390.083 229.766 395.195 229.766 401.499C229.766 407.804 234.877 412.915 241.183 412.915H245.279V464.831C244.577 464.786 243.907 464.73 243.242 464.659C233.022 463.576 223.221 460.014 214.69 454.283C211.938 452.434 209.324 450.248 204.097 445.876L164.95 413.135C164.108 412.43 163.686 412.077 163.279 411.732C139.596 391.603 123.592 363.913 117.974 333.346C117.878 332.82 117.782 332.279 117.592 331.197L117.489 330.608L117.43 330.268C115.132 316.91 114.861 303.282 116.627 289.843C116.657 289.61 116.689 289.376 116.752 288.908L128.49 201.898C130.834 184.522 132.006 175.834 134.954 168.591C141.65 152.134 155.12 139.366 171.913 133.558C179.304 131.001 188.043 130.295 205.522 128.881C219.391 127.759 226.327 127.198 233.265 126.846C248.875 126.054 264.516 126.054 280.126 126.846C287.065 127.198 294 127.759 307.869 128.881C325.348 130.295 334.087 131.001 341.479 133.558C358.271 139.366 371.741 152.134 378.437 168.591Z" fill="#2B2C30"/>
<path d="M363.363 215.648C352.659 211.83 340.944 211.595 329.915 214.978L298.573 224.59C292.535 226.442 286.285 223.023 284.613 216.954C282.941 210.885 286.481 204.464 292.519 202.612L323.861 193C339.534 188.193 356.182 188.527 371.392 193.952C377.251 196.042 380.204 202.594 377.987 208.585C375.77 214.576 369.222 217.738 363.363 215.648Z" fill="#2B2C30"/>
<path fill-rule="evenodd" clip-rule="evenodd" d="M183.381 369.127C167.322 368.311 153.118 358.451 146.741 343.692L144.081 337.537C141.58 331.749 144.245 325.03 150.033 322.529C155.822 320.029 162.542 322.694 165.043 328.481L167.703 334.637C170.634 341.419 177.16 345.95 184.54 346.325L223.127 348.286C230.163 348.643 236.842 345.161 240.576 339.187L241.194 338.198C234.797 336.171 228.914 332.631 224.081 327.799L219.924 323.643C215.465 319.185 215.465 311.957 219.924 307.499C224.382 303.04 231.612 303.04 236.071 307.498L240.227 311.654C243.868 315.294 248.806 317.339 253.955 317.339H259.443C264.591 317.339 269.528 315.295 273.169 311.655L277.327 307.499C281.786 303.042 289.016 303.043 293.474 307.502C297.932 311.961 297.931 319.189 293.471 323.646L289.313 327.803C284.479 332.634 278.595 336.174 272.197 338.2L272.813 339.185C276.547 345.16 283.226 348.643 290.263 348.286L328.85 346.325C336.229 345.95 342.755 341.42 345.686 334.639L348.347 328.484C350.849 322.697 357.569 320.033 363.357 322.534C369.146 325.036 371.81 331.755 369.308 337.543L366.647 343.698C360.269 358.454 346.066 368.311 330.009 369.127L291.423 371.088C277.975 371.772 265.129 366.011 256.695 355.793C248.261 366.011 235.415 371.772 221.968 371.088L183.381 369.127ZM330.722 232.392C337.427 231.67 343.444 236.482 344.161 243.14C344.878 249.798 340.023 255.781 333.318 256.502L315.73 258.396C309.025 259.117 303.008 254.305 302.291 247.647C301.574 240.99 306.429 235.007 313.134 234.285L330.722 232.392Z" fill="#2B2C30"/>
<path fill-rule="evenodd" clip-rule="evenodd" d="M384.901 201.898C382.557 184.522 381.385 175.834 378.437 168.591C371.741 152.134 358.271 139.366 341.479 133.558C334.087 131.001 325.348 130.295 307.869 128.881C294 127.759 287.065 127.198 280.126 126.846C264.516 126.054 248.875 126.054 233.265 126.846C226.327 127.198 219.391 127.759 205.522 128.881C188.043 130.295 179.304 131.001 171.913 133.558C155.12 139.366 141.65 152.134 134.954 168.591C132.006 175.834 130.834 184.522 128.49 201.898L116.752 288.908L116.627 289.843C114.861 303.282 115.132 316.91 117.43 330.268L117.489 330.608L117.592 331.197C117.782 332.279 117.878 332.82 117.974 333.346C123.592 363.913 139.596 391.603 163.279 411.732C163.686 412.077 164.108 412.43 164.95 413.135L204.097 445.876C209.324 450.248 211.938 452.434 214.69 454.283C223.221 460.014 233.022 463.576 243.242 464.659C243.907 464.73 244.577 464.786 245.279 464.831V412.915H241.183C234.877 412.915 229.766 407.804 229.766 401.499C229.766 395.195 234.877 390.083 241.183 390.083H272.21C278.516 390.083 283.627 395.195 283.627 401.499C283.627 407.804 278.516 412.915 272.21 412.915H268.114L268.114 464.853C268.848 464.808 269.546 464.751 270.239 464.679C280.43 463.615 290.208 460.087 298.73 454.4C301.48 452.565 304.093 450.394 309.318 446.054L348.503 413.505C349.121 412.991 349.43 412.735 349.729 412.484C374.161 391.949 390.519 363.417 395.895 331.959L396.007 331.295L396.157 330.386L396.263 329.741C398.377 316.729 398.572 303.477 396.841 290.407L396.754 289.761L384.901 201.898ZM146.741 343.692C153.118 358.451 167.322 368.311 183.381 369.127L221.968 371.088C235.415 371.772 248.261 366.011 256.695 355.793C265.129 366.011 277.975 371.772 291.423 371.088L330.009 369.127C346.066 368.311 360.269 358.454 366.647 343.698L369.308 337.543C371.81 331.755 369.146 325.036 363.357 322.534C357.569 320.033 350.849 322.697 348.347 328.484L345.686 334.639C342.755 341.42 336.229 345.95 328.85 346.325L290.263 348.286C283.226 348.643 276.547 345.16 272.813 339.185L272.197 338.2C278.595 336.174 284.479 332.634 289.313 327.803L293.471 323.646C297.931 319.189 297.932 311.961 293.474 307.502C289.016 303.043 281.786 303.042 277.327 307.499L273.169 311.655C269.528 315.295 264.591 317.339 259.443 317.339H253.955C248.806 317.339 243.868 315.294 240.227 311.654L236.071 307.498C231.612 303.04 224.382 303.04 219.924 307.499C215.465 311.957 215.465 319.185 219.924 323.643L224.081 327.799C228.914 332.631 234.797 336.171 241.194 338.198L240.576 339.187C236.842 345.161 230.163 348.643 223.127 348.286L184.54 346.325C177.16 345.95 170.634 341.419 167.703 334.637L165.043 328.481C162.542 322.694 155.822 320.029 150.033 322.529C144.245 325.03 141.58 331.749 144.081 337.537L146.741 343.692ZM169.238 243.14C169.954 236.482 175.972 231.67 182.677 232.392L200.265 234.285C206.97 235.007 211.825 240.99 211.108 247.647C210.391 254.305 204.374 259.117 197.668 258.396L180.081 256.502C173.375 255.781 168.521 249.798 169.238 243.14ZM183.477 214.978C172.448 211.595 160.733 211.83 150.029 215.648C144.17 217.738 137.622 214.576 135.405 208.585C133.188 202.594 136.141 196.042 142 193.952C157.21 188.527 173.858 188.193 189.531 193L220.873 202.612C226.911 204.464 230.451 210.885 228.779 216.954C227.107 223.023 220.857 226.442 214.819 224.59L183.477 214.978ZM344.161 243.14C343.444 236.482 337.427 231.67 330.722 232.392L313.134 234.285C306.429 235.007 301.574 240.99 302.291 247.647C303.008 254.305 309.025 259.117 315.73 258.396L333.318 256.502C340.023 255.781 344.878 249.798 344.161 243.14ZM329.915 214.978C340.944 211.595 352.659 211.83 363.363 215.648C369.222 217.738 375.77 214.576 377.987 208.585C380.204 202.594 377.251 196.042 371.392 193.952C356.182 188.527 339.534 188.193 323.861 193L292.519 202.612C286.481 204.464 282.941 210.885 284.613 216.954C286.285 223.023 292.535 226.442 298.573 224.59L329.915 214.978Z" fill="white"/>
</svg>
