
<svg width="700" height="700" viewBox="0 0 700 700" fill="none" xmlns="http://www.w3.org/2000/svg">
<rect width="700" height="700" fill="white"/>
<path d="M153.715 124.717L289.953 192.982H410.057L546.296 124.717L563.364 187.003L524.96 313.722L574.032 416.334L530.294 496.653L440.149 485.613L381.422 514.226H318.588L259.861 485.613L169.717 496.653L125.979 416.334L175.051 313.722L136.646 187.003L153.715 124.717Z" fill="#FF8F25"/>
<path d="M153.713 124.717L289.951 192.982L271.914 244.174H428.946L410.055 192.982L546.294 124.717L563.362 187.003L524.958 313.722L350.003 262.524L175.049 313.722L136.645 187.003L153.713 124.717Z" fill="#763D16"/>
<path d="M289.954 192.982L153.716 124.717L311.602 313.722L350.006 262.524L388.411 313.722L546.297 124.717L410.058 192.982L428.949 244.174H271.917L289.954 192.982Z" fill="#D06207"/>
<path d="M530.294 496.652L574.032 416.333H125.979L169.717 496.652L259.861 485.612L318.588 514.225H381.422L440.149 485.612L530.294 496.652Z" fill="#D06207"/>
<path d="M583.059 172.38L577.977 153.834C575.96 146.463 573.853 138.765 571.203 132.663C568.164 125.663 562.79 116.803 551.973 111.981C541.157 107.159 530.973 109.084 523.735 111.502C517.424 113.61 510.289 117.188 503.457 120.614L406.338 169.278C405.642 169.626 405.104 169.896 404.642 170.124C404.127 170.127 403.525 170.127 402.747 170.127H297.253C296.475 170.127 295.873 170.127 295.358 170.124C294.896 169.896 294.358 169.626 293.662 169.278L196.543 120.614C189.711 117.188 182.576 113.61 176.265 111.502C169.027 109.084 158.843 107.159 148.027 111.981C137.21 116.803 131.836 125.663 128.797 132.663C126.147 138.765 124.04 146.463 122.023 153.834L116.941 172.38C116.866 172.656 116.782 172.953 116.693 173.271C115.799 176.466 114.331 181.712 114.406 187.31C114.481 192.908 116.089 198.113 117.069 201.283C117.166 201.598 117.257 201.893 117.34 202.167L149.686 308.896C150.055 310.111 150.341 311.058 150.58 311.871C150.221 312.639 149.795 313.531 149.247 314.677L111.89 392.792C110.451 395.796 108.797 399.253 107.606 402.452C106.184 406.273 104.86 411.112 105.012 416.894C105.164 422.677 106.741 427.439 108.361 431.18C109.718 434.312 111.552 437.677 113.147 440.602L139.961 489.842C142.059 493.699 144.423 498.044 146.904 501.606C149.856 505.844 154.106 510.714 160.728 514.12C167.351 517.527 173.784 518.153 178.949 518.09C183.289 518.037 188.198 517.434 192.556 516.899L192.558 516.898L253.567 509.427C254.531 509.309 255.279 509.217 255.92 509.144C256.502 509.422 257.179 509.752 258.053 510.177L302.162 531.668C302.367 531.768 302.587 531.876 302.823 531.992L302.828 531.995C305.221 533.174 309.141 535.105 313.534 536.118C317.928 537.132 322.297 537.112 324.965 537.101L325.311 537.099C325.448 537.099 325.58 537.098 325.707 537.098H374.293C374.523 537.098 374.771 537.1 375.035 537.101C377.703 537.112 382.072 537.132 386.466 536.118C390.859 535.105 394.779 533.174 397.172 531.995C397.347 531.909 397.514 531.826 397.673 531.749L397.838 531.668L441.947 510.177C442.821 509.752 443.498 509.422 444.08 509.144C444.721 509.217 445.469 509.309 446.433 509.427L507.442 516.898C511.8 517.434 516.71 518.037 521.051 518.09C526.216 518.153 532.649 517.527 539.272 514.12C545.894 510.714 550.144 505.844 553.096 501.606C555.577 498.044 557.941 493.699 560.039 489.842L586.854 440.601C588.448 437.676 590.282 434.311 591.639 431.18C593.259 427.439 594.836 422.677 594.988 416.894C595.14 411.112 593.816 406.273 592.394 402.452C591.203 399.253 589.549 395.797 588.11 392.792L550.753 314.677C550.205 313.531 549.779 312.639 549.42 311.871C549.659 311.058 549.945 310.111 550.314 308.896L582.66 202.167C582.743 201.893 582.834 201.598 582.931 201.283C583.911 198.114 585.519 192.909 585.594 187.31C585.669 181.712 584.201 176.466 583.307 173.271L583.306 173.269C583.217 172.952 583.134 172.655 583.059 172.38ZM178.894 137.396C181.445 138.623 184.256 140.031 187.379 141.596L277.755 186.881L263.746 229.047L178.894 137.396ZM299.82 192.991H400.526L420.205 246.455L393.904 263.805L361.809 255.562C361.565 255.499 361.321 255.436 361.075 255.372L361.067 255.371C358.001 254.577 354.728 253.73 351.28 253.73C347.832 253.73 344.559 254.577 341.494 255.371L341.476 255.375C341.325 255.414 341.174 255.453 341.024 255.492C340.933 255.515 340.843 255.539 340.752 255.562L308.657 263.805L282.112 246.293L299.82 192.991ZM422.582 186.712L512.621 141.596C517.695 139.054 521.943 136.925 525.595 135.314L438.349 229.551L422.582 186.712ZM550.403 142.176C552.315 146.713 554.008 152.888 556.242 161.042L561.005 178.422C562.174 182.688 562.759 184.822 562.729 187.004C562.7 189.186 562.059 191.303 560.775 195.536L529.528 298.639L423.79 271.481L441.515 259.788L550.403 142.176ZM368.149 280.796L356.119 277.706C354.105 277.189 352.987 276.905 352.129 276.73C351.747 276.652 351.529 276.619 351.41 276.605C351.353 276.598 351.32 276.596 351.304 276.595C351.289 276.594 351.283 276.594 351.28 276.594C351.278 276.594 351.272 276.594 351.257 276.595C351.241 276.596 351.208 276.598 351.151 276.605C351.032 276.619 350.814 276.652 350.432 276.73C349.574 276.905 348.456 277.189 346.441 277.706L334.412 280.796L340.57 284.858C344.9 287.715 347.401 289.346 349.367 290.359C350.254 290.815 350.763 291 351.026 291.077C351.149 291.112 351.215 291.124 351.237 291.127C351.241 291.127 351.245 291.128 351.248 291.128C351.261 291.13 351.27 291.13 351.281 291.13C351.294 291.13 351.304 291.13 351.324 291.127C351.337 291.125 351.363 291.121 351.406 291.111C351.439 291.103 351.482 291.092 351.535 291.077C351.798 291 352.308 290.815 353.194 290.359C355.161 289.346 357.662 287.715 361.992 284.858L368.149 280.796ZM304.526 288.472L328.396 304.219C332.158 306.701 335.699 309.038 338.897 310.684C342.46 312.52 346.493 313.994 351.281 313.994C356.069 313.994 360.102 312.52 363.665 310.684C366.863 309.038 370.403 306.701 374.165 304.219L398.035 288.472L528.962 322.1C529.314 322.848 529.701 323.656 530.122 324.537L530.123 324.54L567.221 402.111C568.071 403.89 568.813 405.442 569.445 406.828H130.555C131.186 405.443 131.928 403.893 132.777 402.116L169.877 324.54C170.161 323.944 170.431 323.382 170.684 322.849L304.526 288.472ZM278.771 271.481L170.657 299.25L139.225 195.536C137.941 191.303 137.3 189.186 137.271 187.004C137.241 184.822 137.826 182.688 138.995 178.422L143.758 161.042C146.314 151.715 148.16 144.976 150.439 140.318L261.047 259.788L278.771 271.481ZM133.242 429.692H566.758L540.327 478.226C535.466 487.153 533.036 491.616 528.811 493.79C524.585 495.963 519.54 495.345 509.45 494.11L449.213 486.733C444.71 486.181 442.459 485.906 440.253 486.275C438.048 486.644 436.009 487.637 431.931 489.624L387.821 511.115C384.633 512.668 383.039 513.445 381.326 513.84C379.613 514.235 377.84 514.235 374.293 514.235H325.707C322.16 514.235 320.387 514.235 318.674 513.84C316.962 513.445 315.368 512.668 312.181 511.116L312.179 511.115L268.069 489.624C263.991 487.637 261.952 486.644 259.747 486.275C257.541 485.906 255.29 486.181 250.787 486.733L190.55 494.11C180.46 495.345 175.415 495.963 171.189 493.79C166.964 491.616 164.534 487.153 159.673 478.226L133.242 429.692Z" fill="#2B2C30"/>
<path d="M246.536 447.809L243.872 441.643C241.366 435.846 244.036 429.116 249.834 426.611C255.632 424.107 262.363 426.776 264.868 432.573L267.532 438.739C270.468 445.532 277.005 450.07 284.397 450.446L323.046 452.41C330.095 452.768 336.784 449.28 340.524 443.296L341.143 442.305C334.736 440.275 328.843 436.729 324.002 431.889L319.839 427.727C315.372 423.261 315.372 416.022 319.838 411.556C324.304 407.09 331.545 407.09 336.012 411.555L340.175 415.718C343.822 419.364 348.768 421.412 353.925 421.412H359.422C364.578 421.412 369.523 419.365 373.17 415.72L377.335 411.557C381.802 407.092 389.043 407.093 393.508 411.559C397.974 416.025 397.973 423.265 393.506 427.73L389.341 431.893C384.499 436.733 378.605 440.278 372.197 442.307L372.813 443.294C376.553 449.279 383.243 452.768 390.293 452.41L428.942 450.445C436.333 450.07 442.87 445.533 445.806 438.741L448.471 432.576C450.977 426.779 457.708 424.111 463.506 426.616C469.304 429.122 471.972 435.852 469.466 441.649L466.801 447.814C460.412 462.594 446.187 472.468 430.103 473.285L391.454 475.249C377.984 475.934 365.117 470.163 356.67 459.929C348.222 470.164 335.355 475.934 321.885 475.249L283.236 473.285C267.151 472.468 252.924 462.592 246.536 447.809Z" fill="#2B2C30"/>
<path d="M269.069 347.093C269.788 340.424 275.814 335.604 282.531 336.327L300.147 338.223C306.863 338.946 311.726 344.938 311.008 351.607C310.29 358.276 304.263 363.096 297.547 362.373L279.93 360.477C273.214 359.754 268.351 353.761 269.069 347.093Z" fill="#2B2C30"/>
<path d="M283.332 318.884C272.285 315.496 260.551 315.731 249.83 319.556C243.961 321.649 237.402 318.482 235.182 312.481C232.961 306.48 235.919 299.918 241.788 297.825C257.023 292.39 273.697 292.056 289.396 296.871L320.789 306.498C326.837 308.353 330.382 314.785 328.708 320.864C327.034 326.943 320.774 330.367 314.726 328.512L283.332 318.884Z" fill="#2B2C30"/>
<path d="M444.278 347.093C443.56 340.424 437.533 335.604 430.817 336.327L413.201 338.223C406.484 338.946 401.622 344.938 402.34 351.607C403.058 358.276 409.085 363.096 415.801 362.373L433.417 360.477C440.134 359.754 444.996 353.761 444.278 347.093Z" fill="#2B2C30"/>
<path d="M205.594 302.726L193.763 390.423C193.74 390.596 193.72 390.745 193.701 390.894C191.633 406.633 191.95 422.594 194.642 438.238C194.689 438.512 194.736 438.784 194.813 439.217L194.832 439.329C195.008 440.33 195.118 440.958 195.232 441.577C201.811 477.376 220.554 509.805 248.291 533.379C248.771 533.787 249.26 534.196 250.04 534.848L290.072 568.33C294.573 572.097 298.068 575.021 301.843 577.557C313.477 585.374 326.845 590.232 340.784 591.709C345.307 592.188 349.862 592.19 355.733 592.193L357.706 592.194C363.558 592.199 368.099 592.203 372.609 591.732C386.509 590.282 399.846 585.47 411.469 577.713C415.24 575.196 418.733 572.293 423.233 568.553L463.277 535.29C463.854 534.811 464.215 534.511 464.569 534.214C493.183 510.164 512.341 476.749 518.637 439.907C518.714 439.456 518.79 438.997 518.91 438.268L518.927 438.168C518.975 437.874 519.006 437.688 519.036 437.501C521.512 422.261 521.74 406.741 519.713 391.435C519.688 391.246 519.663 391.057 519.622 390.758L507.746 302.726C507.625 301.825 507.505 300.937 507.387 300.059C505.402 285.272 503.863 273.812 499.791 263.805C490.601 241.22 472.114 223.696 449.067 215.725C438.856 212.193 427.329 211.268 412.454 210.074L412.434 210.072C411.558 210.002 410.671 209.931 409.771 209.858L409.344 209.823C395.855 208.732 388.592 208.144 381.297 207.775C364.89 206.942 348.451 206.942 332.043 207.775C324.749 208.144 317.486 208.732 303.997 209.823L303.569 209.858C302.663 209.931 301.768 210.003 300.886 210.074C286.011 211.268 274.484 212.193 264.273 215.725C241.227 223.696 222.739 241.22 213.549 263.805C209.477 273.812 207.938 285.272 205.953 300.06C205.835 300.937 205.716 301.826 205.594 302.726ZM478.61 272.421C481.563 279.677 482.737 288.379 485.084 305.783L496.957 393.789C497.001 394.113 497.023 394.276 497.044 394.437C498.778 407.527 498.583 420.801 496.465 433.835C496.439 433.996 496.413 434.157 496.359 434.48C496.297 434.86 496.249 435.151 496.209 435.391C496.165 435.652 496.131 435.856 496.097 436.056C490.712 467.565 474.327 496.144 449.855 516.712C449.556 516.964 449.246 517.221 448.627 517.735L409.378 550.337C404.144 554.685 401.527 556.858 398.773 558.696C390.238 564.393 380.443 567.927 370.235 568.992C369.541 569.065 368.842 569.122 368.107 569.167L368.107 517.145H372.21C378.526 517.145 383.646 512.025 383.646 505.71C383.646 499.395 378.526 494.275 372.21 494.275H341.132C334.816 494.275 329.696 499.395 329.696 505.71C329.696 512.025 334.816 517.145 341.132 517.145H345.235V569.145C344.532 569.1 343.861 569.044 343.194 568.973C332.957 567.888 323.141 564.32 314.596 558.58C311.84 556.728 309.222 554.538 303.986 550.159L264.775 517.365C263.931 516.658 263.509 516.305 263.101 515.959C239.379 495.797 223.349 468.062 217.722 437.445C217.626 436.919 217.53 436.377 217.34 435.293L217.237 434.703L217.178 434.363C214.876 420.983 214.605 407.332 216.373 393.871C216.404 393.638 216.435 393.404 216.498 392.935L228.256 305.783C230.604 288.379 231.778 279.677 234.73 272.421C241.437 255.939 254.929 243.149 271.749 237.332C279.152 234.771 287.906 234.063 305.413 232.647C319.305 231.523 326.252 230.961 333.202 230.609C348.837 229.816 364.503 229.816 380.139 230.609C387.089 230.961 394.035 231.523 407.927 232.647C425.434 234.063 434.188 234.771 441.591 237.332C458.411 243.149 471.903 255.939 478.61 272.421Z" fill="#2B2C30"/>
<path d="M463.511 319.556C452.79 315.731 441.056 315.496 430.009 318.884L398.615 328.512C392.568 330.367 386.307 326.943 384.633 320.864C382.959 314.785 386.504 308.353 392.552 306.498L423.945 296.871C439.644 292.056 456.318 292.39 471.553 297.825C477.423 299.918 480.38 306.48 478.159 312.481C475.939 318.482 469.38 321.649 463.511 319.556Z" fill="#2B2C30"/>
<path fill-rule="evenodd" clip-rule="evenodd" d="M283.236 473.285C267.151 472.468 252.924 462.592 246.536 447.809L243.872 441.643C241.366 435.846 244.036 429.116 249.834 426.611C255.632 424.107 262.363 426.776 264.868 432.573L267.532 438.739C270.468 445.532 277.005 450.07 284.397 450.446L323.046 452.41C330.095 452.768 336.784 449.28 340.524 443.296L341.143 442.305C334.736 440.275 328.843 436.729 324.002 431.889L319.839 427.727C315.372 423.261 315.372 416.022 319.838 411.556C324.304 407.09 331.545 407.09 336.012 411.555L340.175 415.718C343.822 419.364 348.768 421.412 353.925 421.412H359.422C364.578 421.412 369.523 419.365 373.17 415.72L377.335 411.557C381.802 407.092 389.043 407.093 393.508 411.559C397.974 416.025 397.973 423.265 393.506 427.73L389.341 431.893C384.499 436.733 378.605 440.278 372.197 442.307L372.813 443.294C376.553 449.279 383.243 452.768 390.293 452.41L428.942 450.445C436.333 450.07 442.87 445.533 445.806 438.741L448.471 432.576C450.977 426.779 457.708 424.111 463.506 426.616C469.304 429.122 471.972 435.852 469.466 441.649L466.801 447.814C460.412 462.594 446.187 472.468 430.103 473.285L391.454 475.249C377.984 475.934 365.117 470.163 356.67 459.929C348.222 470.164 335.355 475.934 321.885 475.249L283.236 473.285ZM430.817 336.327C437.533 335.604 443.56 340.424 444.278 347.093C444.996 353.761 440.134 359.754 433.417 360.477L415.801 362.373C409.085 363.096 403.058 358.276 402.34 351.607C401.622 344.938 406.484 338.946 413.201 338.223L430.817 336.327Z" fill="#2B2C30"/>
<path fill-rule="evenodd" clip-rule="evenodd" d="M485.084 305.783C482.737 288.379 481.563 279.677 478.61 272.421C471.903 255.939 458.411 243.149 441.591 237.332C434.188 234.771 425.434 234.063 407.927 232.647C394.035 231.523 387.089 230.961 380.139 230.609C364.503 229.816 348.837 229.816 333.202 230.609C326.252 230.961 319.305 231.523 305.413 232.647C287.906 234.063 279.152 234.771 271.749 237.332C254.929 243.149 241.437 255.939 234.73 272.421C231.778 279.677 230.604 288.379 228.256 305.783L216.498 392.935L216.373 393.871C214.605 407.332 214.876 420.983 217.178 434.363L217.237 434.703L217.34 435.293C217.53 436.377 217.626 436.919 217.722 437.445C223.349 468.062 239.379 495.797 263.101 515.959C263.509 516.305 263.931 516.658 264.775 517.365L303.986 550.159C309.222 554.538 311.84 556.728 314.596 558.58C323.141 564.32 332.957 567.888 343.194 568.973C343.861 569.044 344.532 569.1 345.235 569.145V517.145H341.132C334.816 517.145 329.696 512.025 329.696 505.71C329.696 499.395 334.816 494.275 341.132 494.275H372.21C378.526 494.275 383.646 499.395 383.646 505.71C383.646 512.025 378.526 517.145 372.21 517.145H368.107L368.107 569.167C368.842 569.122 369.541 569.065 370.235 568.992C380.443 567.927 390.238 564.393 398.773 558.696C401.527 556.858 404.144 554.685 409.378 550.337L448.627 517.735C449.246 517.221 449.556 516.964 449.855 516.712C474.327 496.144 490.712 467.565 496.097 436.056L496.209 435.391L496.359 434.48L496.465 433.835C498.583 420.801 498.778 407.527 497.044 394.437L496.957 393.789L485.084 305.783ZM246.536 447.809C252.924 462.592 267.151 472.468 283.236 473.285L321.885 475.249C335.355 475.934 348.222 470.164 356.67 459.929C365.117 470.163 377.984 475.934 391.454 475.249L430.103 473.285C446.187 472.468 460.412 462.594 466.801 447.814L469.466 441.649C471.972 435.852 469.304 429.122 463.506 426.616C457.708 424.111 450.977 426.779 448.471 432.576L445.806 438.741C442.87 445.533 436.333 450.07 428.942 450.445L390.293 452.41C383.243 452.768 376.553 449.279 372.813 443.294L372.197 442.307C378.605 440.278 384.499 436.733 389.341 431.893L393.506 427.73C397.973 423.265 397.974 416.025 393.508 411.559C389.043 407.093 381.802 407.092 377.335 411.557L373.17 415.72C369.523 419.365 364.578 421.412 359.422 421.412H353.925C348.768 421.412 343.822 419.364 340.175 415.718L336.012 411.555C331.545 407.09 324.304 407.09 319.838 411.556C315.372 416.022 315.372 423.261 319.839 427.727L324.002 431.889C328.843 436.729 334.736 440.275 341.143 442.305L340.524 443.296C336.784 449.28 330.095 452.768 323.046 452.41L284.397 450.446C277.005 450.07 270.468 445.532 267.532 438.739L264.868 432.573C262.363 426.776 255.632 424.107 249.834 426.611C244.036 429.116 241.366 435.846 243.872 441.643L246.536 447.809ZM269.069 347.093C269.788 340.424 275.814 335.604 282.531 336.327L300.147 338.223C306.863 338.946 311.726 344.938 311.008 351.607C310.29 358.276 304.263 363.096 297.547 362.373L279.93 360.477C273.214 359.754 268.351 353.761 269.069 347.093ZM283.332 318.884C272.285 315.496 260.551 315.731 249.83 319.556C243.961 321.649 237.402 318.482 235.182 312.481C232.961 306.48 235.919 299.918 241.788 297.825C257.023 292.39 273.697 292.056 289.396 296.871L320.789 306.498C326.837 308.353 330.382 314.785 328.708 320.864C327.034 326.943 320.774 330.367 314.726 328.512L283.332 318.884ZM444.278 347.093C443.56 340.424 437.533 335.604 430.817 336.327L413.201 338.223C406.484 338.946 401.622 344.938 402.34 351.607C403.058 358.276 409.085 363.096 415.801 362.373L433.417 360.477C440.134 359.754 444.996 353.761 444.278 347.093ZM430.009 318.884C441.056 315.496 452.79 315.731 463.511 319.556C469.38 321.649 475.939 318.482 478.159 312.481C480.38 306.48 477.423 299.918 471.553 297.825C456.318 292.39 439.644 292.056 423.945 296.871L392.552 306.498C386.504 308.353 382.959 314.785 384.633 320.864C386.307 326.943 392.568 330.367 398.615 328.512L430.009 318.884Z" fill="white"/>
</svg>
