<svg width="400" height="401" viewBox="0 0 400 400" fill="none" xmlns="http://www.w3.org/2000/svg">
<rect xmlns="http://www.w3.org/2000/svg" width="400" height="400" fill="white"/>
<path d="M108.063 143.854C108.081 144.364 108.769 144.56 109.074 144.15C112.933 138.973 117.411 133.244 122.193 127.659C124.883 124.517 128.813 124.982 131.043 126.174C133.329 127.395 135.839 130.426 134.718 134.413C133.905 137.306 133.048 140.41 132.191 143.547C132.028 144.146 131.748 144.706 131.368 145.197C130.516 146.295 130.362 147.83 130.424 149.219C130.445 149.695 130.394 150.178 130.267 150.654C129.15 154.805 128.097 158.765 127.216 162.094L127.175 162.249C126.917 163.224 127.423 164.25 128.371 164.595L128.372 164.596C129.294 164.932 130.048 165.206 130.274 165.294C132.484 166.155 133.988 167.655 134.905 168.768C135.873 169.942 136.632 171.231 137.222 172.395C138.403 174.72 139.332 177.38 140.028 179.683C140.74 182.04 141.291 184.302 141.662 185.955C141.849 186.787 141.993 187.481 142.092 187.973C142.195 188.484 142.285 188.976 142.369 189.438L142.37 189.441L142.388 189.537C142.538 190.359 142.468 191.206 142.184 191.992L141.927 192.7C141.573 193.678 141.577 194.285 141.658 194.764C141.757 195.35 142.027 196.069 142.664 197.269C142.848 197.616 143.076 198.025 143.36 198.529L143.399 198.6C143.937 199.559 144.649 200.828 145.209 202.045C146.156 204.105 147.077 206.797 147.023 210.04C146.99 211.987 146.674 215.702 146.054 220.184C145.969 221.013 145.847 221.82 145.702 222.588C144.942 227.528 143.818 233.313 142.249 238.907C140.596 244.806 138.294 251.065 135.047 255.913C134.334 256.977 133.505 258.071 132.555 259.117L132.546 259.127C131.184 260.628 130.503 261.378 130.41 261.486C129.703 262.307 129.481 262.507 129.329 262.751C129.176 262.996 129.094 263.283 128.666 264.279C128.611 264.409 128.342 265.083 127.806 266.429L127.805 266.433C127.402 267.445 126.907 268.563 126.336 269.803C124.089 274.686 118.848 276.78 114.184 276.042C108.624 275.164 104.569 275.603 100.914 276.006C100.756 276.023 100.596 276.041 100.435 276.059L100.432 276.06C96.6266 276.486 92.0051 277.003 87.4458 274.107C83.9361 271.878 82.2451 267.88 81.3389 264.668C80.5232 261.776 80.1103 258.658 79.9028 255.928C79.7869 254.72 78.7124 253.837 77.5056 253.957L76.7684 254.03C68.2143 255.202 54.313 254.757 42.4233 247.617C40.2231 246.295 37.3999 244.278 35.8167 242.165C34.8634 240.893 34.1325 239.617 33.6192 238.346C33.2944 237.541 33.1319 237.139 33.0117 236.963C32.8915 236.787 31.9319 235.884 30.0126 234.076C29.6265 233.712 29.298 233.28 29.0474 232.789C25.4402 225.731 24.1767 217.889 25.2656 210.557C25.272 210.514 25.2791 210.47 25.2868 210.427C25.4003 209.787 25.5348 209.162 25.6893 208.553C25.8987 207.727 26.0034 207.315 25.993 207.032C25.9826 206.75 25.5217 205.369 24.5999 202.606C24.5048 202.321 24.4361 202.025 24.3965 201.719C23.7281 196.565 23.7599 190.212 25.6345 183.659C27.5234 177.056 32.8752 172.365 38.9323 169.013C43.047 166.737 47.8143 164.893 52.819 163.394C54.0717 163.018 54.698 162.831 55.1112 162.586C55.8233 162.165 56.0723 161.916 56.494 161.205C56.7386 160.792 56.9986 159.927 57.5185 158.197C59.5985 151.276 64.0766 145.17 67.9487 140.818C70.3287 138.143 72.1777 136.558 73.4781 135.625C75.1816 134.403 77.41 134.247 79.2511 135.25C81.0168 136.211 82.0265 138.007 82.1089 139.87C82.2418 142.872 82.5968 150.671 83.0634 159.173C83.0951 159.751 83.9102 160.12 84.4798 160.016C85.0159 159.919 85.166 159.581 85.324 159.059C85.462 158.604 85.6202 158.087 85.7018 157.835C87.68 151.74 91.201 146.319 94.3355 142.298C96.3062 139.77 97.8713 138.196 99.0237 137.217C100.65 135.836 102.965 135.474 104.964 136.478C106.87 137.435 107.907 139.329 107.971 141.229C107.988 141.742 108.028 142.879 108.063 143.854Z" fill="#FDEE2D"/>
<path d="M363.888 152.885H174.109C167.625 152.885 162.368 158.142 162.368 164.627V237.034C162.368 243.519 167.625 248.776 174.109 248.776H341.383C345.098 248.774 347.087 248.741 348.967 248.289C350.764 247.858 352.482 247.146 354.058 246.181C355.835 245.092 357.358 243.569 360.404 240.522L367.376 233.551C370.422 230.505 371.945 228.982 373.034 227.204C374 225.628 374.711 223.91 375.143 222.113C375.591 220.248 375.627 218.275 375.629 214.614V164.627C375.629 158.142 370.372 152.885 363.888 152.885Z" fill="#FDEE2D"/>
<path d="M130.186 133.132C130.868 130.706 127.355 128.888 125.784 130.722C120.926 136.396 116.374 142.238 112.472 147.493C114.864 147.516 117.65 147.229 120.272 146.521C123.538 145.639 126.167 144.213 127.65 142.301C128.509 139.156 129.369 136.039 130.186 133.132Z" fill="#0B0B17"/>
<path d="M103.989 159.377C105.446 157.253 107.222 154.71 109.251 151.896C109.289 151.902 109.328 151.908 109.367 151.913C112.721 152.323 117.262 152.111 121.475 150.974C122.9 150.589 124.347 150.081 125.721 149.424C124.602 153.583 123.547 157.55 122.665 160.884C119.666 163.5 116.231 163.744 112.927 163.208C109.151 162.595 105.706 160.795 103.989 159.377Z" fill="#0B0B17"/>
<path d="M103.95 159.336C103.196 158.835 102.308 158.566 101.398 158.566L100.457 158.566C97.0373 158.566 93.4565 158.878 90.1968 159.287C91.9394 153.918 95.1039 148.991 98.0642 145.193C99.878 142.866 101.225 141.539 102.086 140.807C102.589 140.38 103.244 140.725 103.266 141.384C103.365 144.3 103.614 151.413 103.95 159.336Z" fill="#0B0B17"/>
<path d="M80.3041 188.69C80.9783 190.119 82.6279 190.784 83.9886 190.174C86.2228 189.172 89.5516 188.32 92.7779 188.249C96.1107 188.176 98.6408 188.942 100.022 190.36C101.124 191.491 102.864 191.544 103.909 190.479C104.954 189.413 104.907 187.632 103.805 186.501C100.717 183.331 96.2065 182.539 92.35 182.623C88.3869 182.709 84.3776 183.729 81.5473 184.997C80.1866 185.607 79.63 187.261 80.3041 188.69Z" fill="#0B0B17"/>
<path d="M88.6549 198.067C88.6549 196.53 89.9005 195.285 91.4369 195.285L97.6618 195.285C99.1982 195.285 100.444 196.53 100.444 198.067C100.444 199.603 99.1982 200.849 97.6618 200.849H91.4369C89.9005 200.849 88.6549 199.603 88.6549 198.067Z" fill="#0B0B17"/>
<path fill-rule="evenodd" clip-rule="evenodd" d="M111.775 167.772C109.058 167.29 106.697 166.325 104.97 165.442C103.561 164.708 102.354 163.912 101.425 163.183L101.421 163.188L101.408 163.178L100.467 163.178C94.7518 163.178 88.4252 164.124 84.0856 164.878C75.5294 166.367 69.759 168.572 66.2619 172.13C62.6 175.856 61.9097 180.544 62.1613 185.584C62.4626 191.62 63.397 201.253 64.2481 209.319C64.675 213.365 65.0832 217.037 65.3847 219.698C65.5354 221.028 65.6595 222.106 65.746 222.852L65.8894 224.08L65.9004 224.146C67.8945 236.069 75.9706 244.182 85.9337 249.72C95.8667 255.241 107.991 258.396 118.846 260.358L118.961 260.379L119.077 260.39C124.377 260.895 128.351 257.461 131.148 253.285C133.983 249.053 136.122 243.357 137.728 237.631C139.239 232.24 140.332 226.616 141.072 221.788C141.207 221.082 141.317 220.354 141.389 219.622C142.006 215.18 142.298 211.642 142.326 209.958C142.364 207.675 141.723 205.708 140.943 204.011C140.463 202.968 139.829 201.838 139.265 200.833C138.99 200.342 138.732 199.882 138.517 199.476C137.101 196.807 136.294 194.458 137.512 191.091L137.768 190.384L137.632 189.643L137.629 189.644L137.632 189.643L137.629 189.626L137.622 189.586C137.615 189.552 137.606 189.503 137.594 189.439C137.569 189.313 137.534 189.13 137.487 188.899C137.394 188.436 137.257 187.777 137.079 186.983C136.724 185.4 136.201 183.256 135.532 181.043C134.87 178.851 134.035 176.493 133.036 174.526C132.537 173.543 131.958 172.58 131.285 171.764C130.631 170.97 129.744 170.138 128.581 169.685C126.383 168.829 124.767 168.225 123.696 167.833C123.16 167.637 122.76 167.494 122.491 167.399L122.381 167.36L122.257 167.317L122.187 167.292L122.107 167.265L122.076 167.254L121.087 166.917L121.1 166.865C119.112 167.702 117.081 168.055 115.116 168.072C114.115 168.071 112.993 167.988 111.775 167.772ZM126.544 174.863C124.39 174.024 122.815 173.436 121.784 173.058C121.544 172.971 121.333 172.894 121.152 172.829C120.592 172.992 119.83 173.182 118.895 173.336C116.901 173.664 114.107 173.836 110.803 173.251C107.277 172.626 104.299 171.368 102.214 170.281C101.166 169.735 100.33 169.225 99.7455 168.843L99.688 168.806L99.6039 168.75C94.6102 168.838 89.0868 169.656 85.039 170.36C76.7213 171.807 72.4441 173.778 70.2304 176.03C68.1813 178.115 67.4974 180.873 67.7187 185.307C67.9359 189.659 68.498 196.011 69.1221 202.302C70.1786 201.173 71.5467 200.431 73.0919 200.274C76.9633 199.883 80.4807 203.317 80.9483 207.944C81.4158 212.572 78.6564 216.64 74.785 217.031C73.2668 217.184 71.803 216.75 70.5563 215.885C70.6862 217.056 70.8066 218.127 70.9136 219.071C71.0637 220.397 71.1873 221.47 71.2733 222.211C71.3163 222.582 71.3498 222.87 71.3727 223.065L71.3994 223.293C73.0325 232.913 79.5483 239.804 88.637 244.856C97.3002 249.671 108.012 252.638 118.166 254.573C117.99 251.982 117.597 249.249 117.19 246.917C116.915 245.348 116.64 243.993 116.434 243.032L116.4 242.873H114.342C112.806 242.873 111.56 241.628 111.56 240.091C111.56 238.554 112.806 237.309 114.342 237.309H122.902C124.439 237.309 125.684 238.554 125.684 240.091C125.684 241.628 124.439 242.873 122.902 242.873H122.085C122.264 243.747 122.468 244.797 122.671 245.959C123.055 248.154 123.448 250.809 123.663 253.46C124.604 252.707 125.558 251.633 126.525 250.189C128.873 246.683 130.822 241.651 132.37 236.129C132.852 234.411 133.289 232.668 133.683 230.937C133.262 231.001 132.836 231.034 132.409 231.034H127.105C123.517 231.034 120.23 229.033 118.582 225.846L117.548 223.848L117.353 224.441C116.058 228.377 112.382 231.036 108.239 231.036H96.9389C94.0452 231.036 91.306 229.73 89.4841 227.482L84.9584 221.897C83.991 220.704 84.1745 218.952 85.3683 217.984C86.562 217.017 88.314 217.2 89.2814 218.394L93.8071 223.979C94.5725 224.923 95.7233 225.472 96.9389 225.472H108.239C109.98 225.472 111.524 224.355 112.068 222.701L112.449 221.543C111.186 221.502 110.107 220.56 109.914 219.228C109.691 217.696 110.726 216.228 112.226 215.95L123.71 213.818C124.301 213.708 124.625 213.031 124.341 212.502C122.617 209.293 120.028 204.457 116.7 198.197C116.666 198.134 116.635 198.069 116.606 198.003C115.188 194.74 114.714 191.705 115.684 189.107C116.708 186.366 119 184.963 121.219 184.339C123.409 183.723 125.878 183.74 128.129 184.047C129.011 184.168 129.892 184.338 130.748 184.547C130.58 183.929 130.399 183.293 130.206 182.653C129.583 180.591 128.859 178.589 128.075 177.046C127.684 176.275 127.316 175.696 126.991 175.303C126.733 174.989 126.579 174.886 126.549 174.867C126.546 174.865 126.544 174.863 126.544 174.863ZM123.524 223.29L121.76 219.878L124.515 219.366C128.874 218.557 131.266 213.565 129.166 209.656C127.981 207.449 126.385 204.471 124.42 200.788C124.612 200.829 124.811 200.851 125.015 200.851H128.016C129.553 200.851 130.798 199.606 130.798 198.069C130.798 196.532 129.553 195.287 128.016 195.287H125.015C123.839 195.287 122.834 196.015 122.427 197.046C122.153 196.531 121.873 196.005 121.588 195.469C120.458 192.829 120.603 191.505 120.8 190.977C120.947 190.585 121.324 190.108 122.506 189.775C123.717 189.435 125.382 189.385 127.232 189.638C128.853 189.859 130.459 190.291 131.784 190.814C130.604 195.52 132.036 199.134 133.601 202.084C133.948 202.738 134.266 203.302 134.562 203.826C133.763 204.633 133.15 205.776 132.996 207.397C132.623 211.317 133.787 214.705 136.175 216.589C136.015 217.894 135.82 219.324 135.588 220.842C135.378 221.916 135.09 222.974 134.787 223.926C134.518 224.774 133.639 225.469 132.409 225.469H127.105C125.598 225.469 124.216 224.629 123.524 223.29Z" fill="#0B0B17"/>
<path fill-rule="evenodd" clip-rule="evenodd" d="M84.5224 254.209C94.9396 259.806 107.27 262.952 118.011 264.894L118.126 264.915C118.253 264.938 118.381 264.955 118.509 264.968L118.625 264.979C120.345 265.142 121.945 265.021 123.428 264.682C123.069 265.581 122.614 266.614 122.056 267.826C120.825 270.501 117.834 271.838 114.925 271.378C108.71 270.396 104.13 270.901 100.402 271.312C96.2275 271.773 93.1202 272.116 89.9793 270.12C86.0197 267.605 84.834 259.97 84.5224 254.209ZM93.9654 267.763C95.3878 267.763 96.5408 266.61 96.5408 265.187C96.5408 263.765 95.3878 262.612 93.9654 262.612C92.543 262.612 91.39 263.765 91.39 265.187C91.39 266.61 92.543 267.763 93.9654 267.763Z" fill="#0B0B17"/>
<path d="M60.8932 221.046C60.8227 220.425 60.7522 219.805 60.682 219.185C54.8033 220.297 49.1606 222.156 44.8671 224.611C40.9563 226.846 38.5261 229.369 37.7244 231.902C37.0908 233.904 37.3508 236.335 39.5939 239.329C40.603 240.675 42.7611 242.308 44.8545 243.565C55.8065 250.143 68.9201 250.453 76.7602 249.258C69.1633 243.493 63.1272 235.61 61.3363 224.901C61.3227 224.82 61.3113 224.739 61.3021 224.657C61.1664 223.453 61.0302 222.254 60.8943 221.057L60.8933 221.047L60.8932 221.046Z" fill="#0B0B17"/>
<path d="M57.8416 190.338C58.2737 196.189 58.9971 203.513 59.6607 209.801C59.8264 211.372 59.9971 212.94 60.171 214.509C53.6728 215.686 47.3569 217.733 42.4711 220.526C38.2062 222.964 34.6682 226.179 33.3791 230.251C33.3384 230.38 33.3001 230.509 33.2642 230.638C30.0929 224.433 29.0068 217.582 29.9479 211.245C30.4305 208.523 31.3653 206.191 32.6192 204.174C35.3561 199.77 39.781 196.6 45.0613 194.274C49.1294 192.482 53.5371 191.251 57.8416 190.338Z" fill="#0B0B17"/>
<path d="M71.4877 143.942C67.8012 148.086 63.842 153.584 62.0505 159.544C61.5981 161.049 61.414 163.37 61.3847 166.009C46.4666 169.448 32.9582 175.248 30.1836 184.947C28.524 190.748 28.4827 196.433 29.0883 201.103C32.48 195.886 37.6432 192.366 43.2207 189.909C47.7626 187.908 52.7591 186.55 57.5404 185.563C57.2969 180.084 58.0426 173.904 62.9696 168.891C66.6592 165.137 71.9506 162.849 78.4737 161.306C77.9546 152.067 77.5551 143.298 77.4121 140.068C77.3841 139.434 76.7586 139.077 76.2428 139.447C75.2739 140.143 73.6794 141.479 71.4877 143.942Z" fill="#0B0B17"/>
<path d="M198.355 223.739C193.802 223.891 189.806 222.954 186.366 220.929C182.926 218.903 180.548 216.093 179.233 212.498L187.428 208.244C188.592 210.472 190.084 212.168 191.905 213.333C193.777 214.498 195.826 215.055 198.051 215.004C199.62 214.954 200.834 214.599 201.694 213.941C202.554 213.232 202.958 212.295 202.908 211.13C202.857 210.219 202.478 209.459 201.77 208.852C201.061 208.244 200.024 207.813 198.659 207.56L191.602 206.193C188.212 205.383 185.556 203.889 183.634 201.711C181.712 199.534 180.7 196.951 180.599 193.964C180.548 191.432 181.13 189.178 182.344 187.203C183.609 185.178 185.405 183.583 187.732 182.418C190.059 181.253 192.765 180.62 195.851 180.519C199.898 180.367 203.464 181.203 206.55 183.026C209.687 184.798 211.963 187.381 213.38 190.774L205.108 195.027C204.4 193.356 203.237 192.039 201.618 191.077C199.999 190.065 198.178 189.584 196.154 189.634C194.687 189.685 193.549 190.039 192.74 190.698C191.93 191.305 191.551 192.141 191.602 193.204C191.652 194.065 192.032 194.799 192.74 195.407C193.499 195.964 194.662 196.445 196.23 196.85L202.832 198.217C206.323 199.129 209.004 200.623 210.875 202.699C212.798 204.775 213.81 207.307 213.911 210.295C213.961 212.877 213.354 215.156 212.09 217.131C210.875 219.106 209.08 220.676 206.702 221.84C204.324 223.005 201.542 223.638 198.355 223.739Z" fill="#0B0B17"/>
<path fill-rule="evenodd" clip-rule="evenodd" d="M278.023 224.228C273.522 224.228 269.981 223.15 267.402 220.995C264.823 218.839 263.533 215.862 263.533 212.064C263.533 208.471 264.747 205.546 267.175 203.287C269.653 200.978 273.345 199.412 278.25 198.591L289.554 196.743C289.25 195.05 288.441 193.715 287.126 192.74C285.862 191.765 284.167 191.277 282.043 191.277H268.085V181.269H282.802C288.466 181.269 292.917 182.757 296.154 185.734C299.441 188.66 301.085 192.663 301.085 197.744V223.304H290.464V219.378C288.846 221.02 287.025 222.252 285.002 223.073C282.979 223.843 280.653 224.228 278.023 224.228ZM275.292 211.679C275.292 212.962 275.747 213.963 276.657 214.682C277.618 215.4 278.832 215.759 280.299 215.759C283.08 215.759 285.331 214.887 287.05 213.142C288.82 211.345 289.705 209.138 289.705 206.521V205.212L280.299 206.906C278.63 207.214 277.365 207.753 276.505 208.522C275.696 209.292 275.292 210.345 275.292 211.679Z" fill="#0B0B17"/>
<path fill-rule="evenodd" clip-rule="evenodd" d="M306.449 181.269V238.856H317.83V222.361L330.049 220.465L330.602 220.381H330.605C336.122 219.538 340.272 218.903 343.406 216.06C346.695 213.173 348.339 209.222 348.339 204.208V197.526C348.339 192.512 346.695 188.562 343.406 185.674C340.168 182.737 335.716 181.269 330.049 181.269H306.449ZM317.827 191.145V212.466L329.287 210.59C329.364 210.577 329.442 210.564 329.518 210.55L329.673 210.524C329.771 210.507 329.868 210.491 329.962 210.474H329.971L329.999 210.47C332.137 210.105 333.715 209.836 334.902 208.693C335.912 207.795 336.549 206.633 336.812 205.207V196.529C336.548 195.104 335.912 193.942 334.902 193.044C333.585 191.778 331.714 191.145 329.287 191.146L317.827 191.145Z" fill="#0B0B17"/>
<path d="M219.083 181.269H239.329C245.165 181.269 249.751 182.763 253.086 185.751C256.474 188.687 258.167 192.705 258.167 197.806V223.461H246.442V198.424C246.442 196.26 245.791 194.534 244.488 193.246C243.185 191.958 241.465 191.315 239.329 191.315H230.808V223.461H219.083V181.269Z" fill="#0B0B17"/>
</svg>
