<?xml version="1.0" standalone="no"?>
<!DOCTYPE svg PUBLIC "-//W3C//DTD SVG 20010904//EN"
 "http://www.w3.org/TR/2001/REC-SVG-20010904/DTD/svg10.dtd">
<svg version="1.0" xmlns="http://www.w3.org/2000/svg"
 width="800.000000pt" height="800.000000pt" viewBox="0 0 800.000000 800.000000"
 preserveAspectRatio="xMidYMid meet">

<g transform="translate(0.000000,800.000000) scale(0.100000,-0.100000)"
fill="#000000" stroke="none">
<path d="M5493 7163 c-78 -82 -452 -551 -551 -691 l-23 -32 63 0 c81 0 225 23
314 51 99 31 174 71 233 126 l51 48 55 201 c30 110 55 214 55 230 0 58 -56
104 -126 104 -29 0 -44 -7 -71 -37z"/>
<path d="M3268 6736 c-164 -139 -376 -419 -478 -631 -64 -133 -89 -220 -103
-361 l-12 -117 -147 -38 c-498 -130 -852 -304 -1051 -519 -152 -164 -218 -392
-216 -745 1 -93 4 -183 8 -198 6 -28 7 -27 56 39 193 257 557 457 1045 574
l136 32 11 152 c14 178 36 266 100 389 55 106 170 233 273 302 121 81 322 164
493 206 l49 12 -7 96 c-3 53 -14 263 -24 467 -10 204 -21 376 -25 383 -14 22
-46 10 -108 -43z"/>
<path d="M4402 6673 c-150 -155 -336 -439 -418 -640 -24 -59 -42 -108 -41
-109 1 -2 34 2 72 7 39 5 158 12 265 16 171 5 199 4 228 -11 l32 -17 0 68 c-1
38 -7 218 -14 402 -16 404 -13 398 -124 284z"/>
<path d="M5405 6318 c-147 -54 -234 -69 -443 -75 l-193 -6 -93 -131 c-143
-202 -134 -185 -105 -208 13 -11 58 -37 99 -58 181 -90 365 -121 505 -85 69
18 150 60 174 91 15 19 147 492 139 499 -2 1 -39 -11 -83 -27z"/>
<path d="M4170 5743 c-486 -47 -846 -126 -1052 -229 -157 -78 -257 -169 -320
-291 -74 -140 -93 -273 -78 -520 30 -472 145 -1560 180 -1708 58 -249 176
-458 369 -658 361 -374 942 -636 1791 -807 225 -46 314 -35 452 56 199 132
366 428 497 880 101 348 188 845 208 1180 8 148 -10 229 -84 371 -31 60 -73
141 -93 181 -53 102 -65 180 -44 274 22 95 21 119 -11 263 -57 252 -131 460
-208 582 -65 105 -101 130 -304 205 l-179 67 -65 -21 c-54 -19 -87 -22 -209
-22 -127 1 -156 4 -230 27 -112 34 -208 78 -290 132 l-68 45 -113 -2 c-63 0
-130 -3 -149 -5z m208 -252 c91 -64 294 -144 447 -177 104 -22 304 -22 402 -1
l72 16 118 -45 c70 -26 125 -54 136 -67 32 -40 87 -162 123 -276 20 -61 35
-114 32 -116 -2 -2 -40 2 -83 10 -102 18 -202 18 -286 1 -136 -29 -219 -89
-271 -193 -29 -59 -32 -75 -32 -152 0 -135 24 -196 225 -572 98 -185 179 -341
179 -347 0 -23 -42 -35 -293 -82 -148 -27 -277 -56 -291 -65 -35 -23 -59 -80
-52 -123 6 -40 47 -88 83 -97 21 -5 24 -10 18 -33 -12 -51 -55 -103 -101 -123
-41 -18 -64 -20 -336 -17 -286 3 -294 4 -325 26 -17 12 -80 82 -138 155 -58
72 -118 140 -133 149 -15 10 -46 18 -70 18 -37 0 -50 -6 -78 -34 -29 -29 -34
-41 -34 -83 0 -47 3 -52 130 -210 101 -125 143 -170 188 -198 102 -64 120 -66
499 -63 l338 3 58 27 c80 38 160 116 201 200 l35 68 38 -67 c50 -91 118 -157
201 -196 l67 -32 198 -3 c108 -2 197 -6 197 -8 0 -3 -11 -51 -26 -107 -58
-235 -139 -461 -217 -612 -45 -87 -148 -229 -176 -245 -17 -8 -19 -2 -25 68
-4 42 -18 142 -32 221 -13 80 -24 148 -24 153 0 4 14 8 30 8 92 0 148 97 105
180 -29 55 -52 60 -292 60 -233 0 -250 -3 -286 -51 -22 -30 -25 -95 -7 -129
20 -38 70 -60 136 -60 l62 0 21 -112 c39 -210 61 -398 46 -398 -18 0 -314 67
-425 96 -786 206 -1289 525 -1504 952 -75 150 -108 287 -132 554 l-7 77 52
-19 c194 -74 380 67 398 301 10 125 -29 231 -117 320 -105 105 -236 119 -357
38 l-41 -29 -6 48 c-24 193 -49 547 -50 712 -1 184 0 198 23 255 53 132 199
236 429 304 214 63 631 128 900 140 19 0 46 -7 60 -18z m1300 -921 c68 -18 82
-25 77 -39 -4 -9 -9 -54 -12 -101 -7 -117 14 -207 80 -344 53 -111 54 -113 36
-135 -47 -58 -63 -213 -34 -324 19 -74 47 -128 91 -177 l35 -39 -15 -105 c-22
-144 -44 -221 -73 -248 -23 -21 -35 -23 -171 -26 -176 -4 -202 0 -248 40 -30
27 -114 170 -114 196 0 4 39 15 87 24 132 25 214 96 249 215 31 106 22 132
-148 453 l-77 145 92 0 c111 0 149 17 172 80 14 34 14 46 3 79 -21 64 -54 80
-167 84 -105 4 -148 -8 -174 -48 -6 -11 -15 -20 -18 -20 -10 0 -57 111 -69
164 -27 121 26 159 210 153 68 -3 134 -12 188 -27z"/>
<path d="M3855 4884 c-44 -8 -118 -26 -165 -40 -154 -47 -190 -76 -190 -150 0
-54 34 -104 83 -123 36 -13 43 -12 145 22 139 47 213 59 347 59 135 0 220 -24
283 -77 51 -44 90 -57 136 -44 50 14 76 51 76 108 0 50 -14 76 -64 123 -48 44
-183 106 -268 123 -95 19 -274 18 -383 -1z"/>
<path d="M3943 4335 c-86 -37 -90 -157 -6 -212 23 -15 52 -18 198 -18 150 0
173 2 198 19 76 52 75 151 -2 203 -32 22 -44 23 -195 23 -114 -1 -170 -5 -193
-15z"/>
<path d="M2360 4525 c-354 -95 -605 -218 -778 -379 -134 -125 -213 -258 -258
-433 -61 -235 -20 -584 98 -843 l30 -65 19 49 c30 74 81 145 161 223 185 179
486 318 882 407 59 14 110 27 112 28 2 2 -8 105 -21 230 -24 221 -75 769 -75
802 0 23 -25 20 -170 -19z"/>
<path d="M2463 3260 c-330 -85 -571 -206 -715 -359 -136 -144 -145 -293 -27
-461 108 -154 434 -330 759 -409 200 -49 352 -64 610 -59 124 2 233 9 243 14
15 9 10 15 -35 49 -82 63 -247 231 -320 329 -170 227 -270 478 -303 761 -20
168 -22 175 -43 175 -9 -1 -85 -18 -169 -40z"/>
<path d="M3697 1713 c7 -102 44 -303 69 -381 34 -103 75 -172 134 -225 99 -89
221 -110 475 -83 255 27 341 29 490 15 267 -26 332 -16 415 63 26 26 110 180
110 203 0 2 -42 2 -92 -2 -73 -4 -118 -1 -208 16 -516 98 -969 240 -1301 407
-49 24 -90 44 -92 44 -2 0 -2 -26 0 -57z m446 -317 c43 -18 67 -46 73 -88 12
-72 -52 -136 -124 -124 -112 18 -131 167 -27 212 38 17 39 17 78 0z"/>
</g>
</svg>
